<?xml version="1.0" encoding="UTF-8" standalone="no"?>
<!DOCTYPE svg PUBLIC "-//W3C//DTD SVG 1.1//EN"
 "http://www.w3.org/Graphics/SVG/1.1/DTD/svg11.dtd">
<!-- Generated by graphviz version 2.38.0 (20140413.2041)
 -->
<!-- Title: G Pages: 1 -->
<svg width="334pt" height="222pt"
 viewBox="0.00 0.00 334.49 222.00" xmlns="http://www.w3.org/2000/svg" xmlns:xlink="http://www.w3.org/1999/xlink">
<g id="graph0" class="graph" transform="scale(1 1) rotate(0) translate(4 218)">
<title>G</title>
<polygon fill="white" stroke="none" points="-4,4 -4,-218 330.491,-218 330.491,4 -4,4"/>
<g id="clust1" class="cluster"><title>cluster_Global</title>
<path fill="none" stroke="gray" d="M157.491,-8C157.491,-8 306.491,-8 306.491,-8 312.491,-8 318.491,-14 318.491,-20 318.491,-20 318.491,-194 318.491,-194 318.491,-200 312.491,-206 306.491,-206 306.491,-206 157.491,-206 157.491,-206 151.491,-206 145.491,-200 145.491,-194 145.491,-194 145.491,-20 145.491,-20 145.491,-14 151.491,-8 157.491,-8"/>
<text text-anchor="middle" x="231.991" y="-193.2" font-family="Times,serif" font-size="11.00" fill="gray">Global</text>
</g>
<g id="clust2" class="cluster"><title>cluster_\Hiokwee</title>
<path fill="none" stroke="gray" d="M165.491,-16C165.491,-16 298.491,-16 298.491,-16 304.491,-16 310.491,-22 310.491,-28 310.491,-28 310.491,-166 310.491,-166 310.491,-172 304.491,-178 298.491,-178 298.491,-178 165.491,-178 165.491,-178 159.491,-178 153.491,-172 153.491,-166 153.491,-166 153.491,-28 153.491,-28 153.491,-22 159.491,-16 165.491,-16"/>
<text text-anchor="middle" x="231.991" y="-165.2" font-family="Times,serif" font-size="11.00" fill="gray">Hiokwee</text>
</g>
<g id="clust3" class="cluster"><title>cluster_\Hiokwee\Filemanager</title>
<path fill="none" stroke="gray" d="M173.491,-24C173.491,-24 290.491,-24 290.491,-24 296.491,-24 302.491,-30 302.491,-36 302.491,-36 302.491,-138 302.491,-138 302.491,-144 296.491,-150 290.491,-150 290.491,-150 173.491,-150 173.491,-150 167.491,-150 161.491,-144 161.491,-138 161.491,-138 161.491,-36 161.491,-36 161.491,-30 167.491,-24 173.491,-24"/>
<text text-anchor="middle" x="231.991" y="-137.2" font-family="Times,serif" font-size="11.00" fill="gray">Filemanager</text>
</g>
<!-- \\Hiokwee\\Filemanager\\RuntimeException -->
<g id="node1" class="node"><title>\\Hiokwee\\Filemanager\\RuntimeException</title>
<polygon fill="none" stroke="black" points="294.491,-122 169.491,-122 169.491,-86 294.491,-86 294.491,-122"/>
<text text-anchor="middle" x="231.991" y="-101.2" font-family="Courier,monospace" font-size="11.00">RuntimeException</text>
</g>
<!-- \\Exception -->
<g id="node3" class="node"><title>\\Exception</title>
<ellipse fill="none" stroke="black" cx="48.7457" cy="-104" rx="48.9926" ry="18"/>
<text text-anchor="middle" x="48.7457" y="-100.3" font-family="Times,serif" font-size="14.00" fill="gray">\Exception</text>
</g>
<!-- \\Hiokwee\\Filemanager\\RuntimeException&#45;&gt;\\Exception -->
<g id="edge1" class="edge"><title>\\Hiokwee\\Filemanager\\RuntimeException&#45;&gt;\\Exception</title>
<path fill="none" stroke="black" d="M169.377,-104C149.452,-104 127.435,-104 107.779,-104"/>
<polygon fill="none" stroke="black" points="107.738,-100.5 97.7383,-104 107.738,-107.5 107.738,-100.5"/>
</g>
<!-- \\Hiokwee\\Filemanager\\File -->
<g id="node2" class="node"><title>\\Hiokwee\\Filemanager\\File</title>
<polygon fill="none" stroke="black" points="258.991,-68 204.991,-68 204.991,-32 258.991,-32 258.991,-68"/>
<text text-anchor="middle" x="231.991" y="-47.2" font-family="Courier,monospace" font-size="11.00">File</text>
</g>
</g>
</svg>
